<?xml version="1.0" encoding="utf-8"?>
<!-- Generator: Adobe Illustrator 25.0.1, SVG Export Plug-In . SVG Version: 6.00 Build 0)  -->
<svg version="1.1" id="Layer_1" xmlns="http://www.w3.org/2000/svg" xmlns:xlink="http://www.w3.org/1999/xlink" x="0px" y="0px"
	 viewBox="0 0 24 24" style="enable-background:new 0 0 24 24;" xml:space="preserve">
<style type="text/css">
	.st0{fill:#6648FE;}
</style>
<g>
	<path class="st0" d="M19.9,15.1c-1,0-1.9,0.7-2.1,1.7h-3.7c-0.3-1-1.1-1.7-2.1-1.7s-1.9,0.7-2.1,1.7H6.2c-0.3-1-1.1-1.7-2.1-1.7
		c-1.2,0-2.2,1-2.2,2.2c0,1.2,1,2.2,2.2,2.2c1,0,1.9-0.7,2.1-1.7h3.7c0.3,1,1.1,1.7,2.1,1.7s1.9-0.7,2.1-1.7h3.7
		c0.3,1,1.1,1.7,2.1,1.7c1.2,0,2.2-1,2.2-2.2C22.1,16.1,21.1,15.1,19.9,15.1z M19.9,18.4c-0.5,0-0.8-0.2-1-0.6
		c-0.1-0.2-0.1-0.3-0.1-0.5c0-0.2,0-0.4,0.1-0.5c0.2-0.4,0.6-0.6,1-0.6c0.6,0,1.2,0.5,1.2,1.2S20.6,18.4,19.9,18.4z M13.1,17.3
		c0,0.2,0,0.4-0.1,0.5c-0.2,0.4-0.6,0.6-1,0.6c-0.5,0-0.8-0.3-1-0.6c-0.1-0.2-0.1-0.3-0.1-0.5c0-0.2,0-0.4,0.1-0.5
		c0.2-0.4,0.6-0.6,1-0.6c0.5,0,0.8,0.2,1,0.6C13.1,16.9,13.1,17.1,13.1,17.3z M5.2,17.3c0,0.2,0,0.4-0.1,0.5c-0.2,0.4-0.6,0.6-1,0.6
		c-0.6,0-1.2-0.5-1.2-1.2s0.5-1.2,1.2-1.2c0.5,0,0.8,0.2,1,0.6C5.2,16.9,5.2,17.1,5.2,17.3z"/>
	<path class="st0" d="M5.1,8.2h3c0.3,0,0.5-0.3,0.5-0.5c0-0.3-0.3-0.5-0.5-0.5h-3c-0.3,0-0.5,0.3-0.5,0.5C4.6,7.9,4.8,8.2,5.1,8.2z"
		/>
	<path class="st0" d="M5.1,10.3h5.8c0.3,0,0.5-0.3,0.5-0.5c0-0.3-0.3-0.5-0.5-0.5H5.1c-0.3,0-0.5,0.3-0.5,0.5
		C4.6,10.1,4.8,10.3,5.1,10.3z"/>
	<path class="st0" d="M5.6,12.9h0.8c-0.1,0.5-0.3,1-0.4,1.3c-0.1,0.2,0,0.4,0.1,0.5c0.1,0.1,0.3,0.2,0.4,0.2h0c0.1,0,2.8-0.3,3.5-2
		h0.4c2,0,3.6-1.6,3.6-3.6V8.2c0-2-1.6-3.6-3.6-3.6H5.6c-2,0-3.6,1.6-3.6,3.6v1.1C1.9,11.3,3.6,12.9,5.6,12.9z M3,8.2
		c0-1.4,1.2-2.6,2.6-2.6h4.8c1.4,0,2.6,1.2,2.6,2.6v1.1c0,1.4-1.2,2.6-2.6,2.6H9.6c-0.3,0-0.5,0.2-0.5,0.4c-0.1,0.8-1.1,1.2-1.9,1.4
		c0.1-0.4,0.2-0.8,0.3-1.2c0-0.2,0-0.3-0.1-0.4c-0.1-0.1-0.3-0.2-0.4-0.2H5.6C4.1,11.9,3,10.7,3,9.3L3,8.2L3,8.2z"/>
</g>
</svg>
