<svg height='300px' width='300px'  fill="#FFFFFF" xmlns="http://www.w3.org/2000/svg" xmlns:xlink="http://www.w3.org/1999/xlink" version="1.1" x="0px" y="0px" viewBox="0 0 100 100" enable-background="new 0 0 100 100" xml:space="preserve"><g><path fill="#FFFFFF" d="M39.7,56.8v-1.2c0-0.2,0-0.3,0-0.5c-0.1-2.6-1.4-5.9-3.9-7.4c-1.2-0.7-3.1-1.3-5.6-0.1   c-3.6,1.7-5.6,6.9-5.9,11c-0.2,1.8-0.1,3.8,0.2,6.2c0.1,0.5,0.7,2.5,1,3.4c0.9,3,1.1,3.7,2,3.7c0.1,0,0.2,0,0.3,0l0.2,0   c0,0.4,0.1,0.9,0.2,1.3l0.2,7.5l-5,8.8c-0.2,0.3-0.2,0.7-0.1,1c0.1,0.3,0.3,0.6,0.7,0.8l3.7,1.7c0.2,0.1,0.4,0.1,0.5,0.1   c0.4,0,0.7-0.2,1-0.5l5.9-7.3l2.1,6.8c0.2,0.5,0.6,0.9,1.2,0.9h3.7c0.3,0,0.7-0.1,0.9-0.4c0.2-0.2,0.4-0.6,0.4-0.9L43,78.9   c0-0.1,0-0.2,0-0.3l-3.2-11.1v-0.9c0.5,0.3,1,0.6,1.5,0.9c0.7,0.4,1.4,0.8,2.1,1.2c0.2,0.1,0.4,0.2,0.7,0.2c0.4,0,0.8-0.2,1-0.6   l1.7-2.6c0.3-0.5,0.3-1.1-0.1-1.5L39.7,56.8z M42.6,65.4c-1-0.6-1.9-1.2-2.8-1.7v-3.2l4.4,4.8l-0.5,0.8   C43.3,65.8,42.9,65.6,42.6,65.4z M37.2,65v1.4h-4.9l-0.2-2.5l-0.3-3.3c0.4-0.6,0.8-1.4,1.2-2.2c0.6-1.2,1.3-2.5,1.9-3.9   c0.3-0.6,0-1.4-0.6-1.7c-0.6-0.3-1.4,0-1.7,0.6c-0.8,1.7-2.2,4.6-3.2,6.1c-0.2,0.2-0.2,0.5-0.2,0.8l0.5,6.3L30,69l-1.5,0.2   c-0.2-0.5-0.4-1.1-0.6-1.8c-0.4-1.3-0.8-2.7-0.9-3c-0.3-2.2-0.4-4.1-0.2-5.7c0.3-3.4,2-7.7,4.5-8.9c0.6-0.3,1.1-0.4,1.7-0.4   c0.5,0,1,0.1,1.5,0.4c1.5,0.9,2.6,3.1,2.7,5.4c0,0.1,0,0.3,0,0.4v1.7v0v3.2V62v1.5V65z M27.9,90.1l-1.6-0.8l4.5-7.9   c0.1-0.2,0.2-0.4,0.2-0.7l-0.1-3.7l3.1,4.1l0.3,1.1L27.9,90.1z M40.5,79.2l0.4,11.2h-1.5l-3.2-10.1c0-0.1-0.1-0.3-0.2-0.4l-5.3-7.1   c0,0,0-0.1,0-0.1c0-0.1,0-0.1-0.1-0.2c-0.1-0.2-0.1-0.6-0.1-1l1-0.1c0.7-0.1,1.1-0.7,1.1-1.3l-0.1-1.1h5L40.5,79.2z"></path><path fill="#FFFFFF" d="M71.8,34.6c-2.5,0-4.5,1.7-5.1,4h-8.8c-0.6-2.3-2.6-4-5.1-4c-2.5,0-4.5,1.7-5.1,4H39c-0.6-2.3-2.6-4-5.1-4   c-2.9,0-5.3,2.4-5.3,5.2s2.4,5.2,5.3,5.2c2.5,0,4.5-1.7,5.1-4h8.8c0.6,2.3,2.6,4,5.1,4c2.5,0,4.5-1.7,5.1-4h8.8   c0.6,2.3,2.6,4,5.1,4c2.9,0,5.2-2.4,5.2-5.2S74.7,34.6,71.8,34.6z M71.8,42.6c-1.1,0-2-0.6-2.4-1.5c-0.2-0.4-0.3-0.8-0.3-1.2   s0.1-0.9,0.3-1.2c0.5-0.9,1.4-1.5,2.4-1.5c1.5,0,2.8,1.2,2.8,2.8S73.4,42.6,71.8,42.6z M55.6,39.8c0,0.5-0.1,0.9-0.3,1.2   c-0.5,0.9-1.4,1.5-2.4,1.5c-1.1,0-2-0.6-2.4-1.5c-0.2-0.4-0.3-0.8-0.3-1.2s0.1-0.9,0.3-1.2c0.5-0.9,1.4-1.5,2.4-1.5   c1.1,0,2,0.6,2.4,1.5C55.5,38.9,55.6,39.4,55.6,39.8z M36.6,39.8c0,0.5-0.1,0.9-0.3,1.2c-0.5,0.9-1.4,1.5-2.4,1.5   c-1.5,0-2.8-1.2-2.8-2.8s1.2-2.8,2.8-2.8c1.1,0,2,0.6,2.4,1.5C36.5,38.9,36.6,39.4,36.6,39.8z"></path><path fill="#FFFFFF" d="M36.2,18h7.3c0.7,0,1.2-0.6,1.2-1.2s-0.6-1.2-1.2-1.2h-7.3c-0.7,0-1.2,0.6-1.2,1.2S35.5,18,36.2,18z"></path><path fill="#FFFFFF" d="M36.2,23.1h13.9c0.7,0,1.2-0.6,1.2-1.2s-0.6-1.2-1.2-1.2H36.2c-0.7,0-1.2,0.6-1.2,1.2S35.5,23.1,36.2,23.1z   "></path><path fill="#FFFFFF" d="M37.4,29.3h1.9c-0.3,1.2-0.7,2.3-1,3c-0.2,0.4-0.1,0.9,0.2,1.2c0.2,0.3,0.6,0.5,1,0.5c0,0,0.1,0,0.1,0   c0.3,0,6.7-0.8,8.4-4.7h0.9c4.8,0,8.7-3.9,8.7-8.7V18c0-4.8-3.9-8.7-8.7-8.7H37.4c-4.8,0-8.7,3.9-8.7,8.7v2.7   C28.7,25.4,32.6,29.3,37.4,29.3z M31.2,18c0-3.4,2.8-6.2,6.2-6.2h11.5c3.4,0,6.2,2.8,6.2,6.2v2.7c0,3.4-2.8,6.2-6.2,6.2h-1.9   c-0.6,0-1.1,0.4-1.2,1c-0.3,1.8-2.6,2.8-4.5,3.3c0.3-1,0.5-2,0.7-2.9c0-0.4-0.1-0.7-0.3-1c-0.2-0.3-0.6-0.4-0.9-0.4h-3.4   c-3.4,0-6.2-2.8-6.2-6.2V18z"></path></g></svg>